<svg width="140" height="30" viewBox="0 0 140 30" fill="none" xmlns="http://www.w3.org/2000/svg">
<path d="M42.968 17.2073H40.64V20.9033H36.848V7.10332H43.136C45.04 7.10332 46.552 7.55932 47.672 8.47132C48.792 9.36732 49.352 10.6073 49.352 12.1913C49.352 13.1993 49.104 14.0793 48.608 14.8313C48.128 15.5673 47.44 16.1433 46.544 16.5593L49.616 20.9033H45.536L42.968 17.2073ZM45.536 12.1913C45.536 11.5033 45.312 10.9753 44.864 10.6073C44.416 10.2393 43.752 10.0553 42.872 10.0553H40.64V14.3273H42.872C43.752 14.3273 44.416 14.1433 44.864 13.7753C45.312 13.4073 45.536 12.8793 45.536 12.1913ZM59.0373 21.1673C57.5653 21.1673 56.2373 20.8633 55.0533 20.2553C53.8853 19.6313 52.9653 18.7753 52.2933 17.6873C51.6213 16.5993 51.2853 15.3753 51.2853 14.0153C51.2853 12.6553 51.6213 11.4313 52.2933 10.3433C52.9653 9.23932 53.8853 8.38332 55.0533 7.77532C56.2373 7.15132 57.5653 6.83932 59.0373 6.83932C60.5093 6.83932 61.8293 7.15132 62.9973 7.77532C64.1813 8.38332 65.1093 9.23932 65.7813 10.3433C66.4533 11.4313 66.7893 12.6553 66.7893 14.0153C66.7893 15.3753 66.4533 16.5993 65.7813 17.6873C65.1093 18.7753 64.1813 19.6313 62.9973 20.2553C61.8293 20.8633 60.5093 21.1673 59.0373 21.1673ZM59.0373 18.0713C59.7733 18.0713 60.4373 17.8953 61.0293 17.5433C61.6373 17.1913 62.1093 16.7113 62.4453 16.1033C62.7813 15.4793 62.9493 14.7833 62.9493 14.0153C62.9493 13.2313 62.7813 12.5353 62.4453 11.9273C62.1093 11.3033 61.6373 10.8153 61.0293 10.4633C60.4373 10.1113 59.7733 9.93532 59.0373 9.93532C58.3013 9.93532 57.6293 10.1113 57.0213 10.4633C56.4293 10.8153 55.9573 11.3033 55.6053 11.9273C55.2693 12.5353 55.1013 13.2313 55.1013 14.0153C55.1013 14.7833 55.2693 15.4793 55.6053 16.1033C55.9573 16.7113 56.4293 17.1913 57.0213 17.5433C57.6293 17.8953 58.3013 18.0713 59.0373 18.0713ZM76.169 21.1673C74.713 21.1673 73.401 20.8633 72.233 20.2553C71.065 19.6313 70.145 18.7753 69.473 17.6873C68.801 16.5993 68.465 15.3753 68.465 14.0153C68.465 12.6553 68.801 11.4313 69.473 10.3433C70.145 9.23932 71.065 8.38332 72.233 7.77532C73.401 7.15132 74.713 6.83932 76.169 6.83932C77.497 6.83932 78.641 7.03932 79.601 7.43932C80.577 7.83932 81.417 8.47932 82.121 9.35932L79.673 11.5913C78.761 10.4873 77.641 9.93532 76.313 9.93532C75.145 9.93532 74.177 10.3113 73.409 11.0633C72.657 11.8153 72.281 12.7993 72.281 14.0153C72.281 14.8153 72.449 15.5273 72.785 16.1513C73.137 16.7593 73.617 17.2313 74.225 17.5673C74.849 17.9033 75.545 18.0713 76.313 18.0713C77.641 18.0713 78.761 17.5193 79.673 16.4153L82.121 18.6473C81.433 19.5113 80.593 20.1513 79.601 20.5673C78.625 20.9673 77.481 21.1673 76.169 21.1673ZM89.8004 15.8153L88.2404 17.4233V20.9033H84.4964V7.10332H88.2404V12.9833L93.8564 7.10332H98.0324L92.2964 13.2473L98.3444 20.9033H93.9284L89.8004 15.8153ZM119.105 20.9033L119.081 13.3673L115.385 19.4393H113.681L110.009 13.6073V20.9033H106.481V7.10332H109.649L114.593 15.1193L119.417 7.10332H122.609L122.657 20.9033H119.105ZM137.444 17.9993V20.9033H126.332V7.10332H137.18V10.0073H130.076V12.5273H136.364V15.2873H130.076V17.9993H137.444Z" fill="white"/>
<path d="M101.428 21.0953C100.756 21.0953 100.204 20.8873 99.7715 20.4713C99.3395 20.0393 99.1235 19.5193 99.1235 18.9113C99.1235 18.2873 99.3395 17.7753 99.7715 17.3753C100.204 16.9753 100.756 16.7753 101.428 16.7753C102.1 16.7753 102.644 16.9753 103.06 17.3753C103.492 17.7753 103.708 18.2873 103.708 18.9113C103.708 19.5193 103.492 20.0393 103.06 20.4713C102.628 20.8873 102.084 21.0953 101.428 21.0953Z" fill="#FF3D9A"/>
<path d="M25.7239 0.0867384L8.22555 5.62358C7.87035 5.74314 7.55999 5.98096 7.33958 6.30248C7.11918 6.624 7.00022 7.01245 7 7.41138V22.7293C6.42696 22.5802 5.83967 22.5031 5.25 22.4996C2.35156 22.4996 0 24.179 0 26.2498C0 28.3206 2.35156 30 5.25 30C8.14844 30 10.5 28.3206 10.5 26.2498V12.5568L24.5 8.16201V18.9796C23.927 18.8301 23.3397 18.7528 22.75 18.7493C19.8516 18.7493 17.5 20.4287 17.5 22.4996C17.5 24.5704 19.8516 26.2498 22.75 26.2498C25.6484 26.2498 28 24.571 28 22.4996V1.87337C27.9997 1.579 27.9348 1.28883 27.8105 1.02634C27.6861 0.763858 27.5058 0.536432 27.2842 0.362469C27.0626 0.188507 26.8058 0.0728959 26.5348 0.0249937C26.2637 -0.0229084 25.9859 -0.00175619 25.7239 0.0867384V0.0867384Z" fill="#4AB955"/>
</svg>
