<svg width="32" height="32" viewBox="0 0 32 32" fill="none" xmlns="http://www.w3.org/2000/svg">
<path d="M27.76 7C30 7 30 9.22222 30 9.22222V24.7778C30 27 27.76 27 27.76 27H4.24C2 27 2 24.7778 2 24.7778C2 24.7778 2 11.4444 2 9.22222C2 7 4.24 7 4.24 7M27.76 7H4.24M27.76 7V20.3333H4.24V7M9.28 11.4444C10.8267 11.4444 12.08 12.6878 12.08 14.2222C12.08 15.7556 10.8267 17 9.28 17M9.28 11.4444C7.73328 11.4444 6.48 12.6878 6.48 14.2222C6.48 15.7556 7.73328 17 9.28 17M9.28 11.4444H22.72M9.28 17H22.72M22.72 11.4444C24.2667 11.4444 25.52 12.6878 25.52 14.2222C25.52 15.7556 24.2667 17 22.72 17M22.72 11.4444C21.1733 11.4444 19.92 12.6878 19.92 14.2222C19.92 15.7556 21.1733 17 22.72 17M8.16 24.7778H23.84M25.52 27L23.28 22.5556H8.72L6.48 27H25.52Z" stroke="white" stroke-miterlimit="10" stroke-linecap="round"/>
</svg>
