<svg width="32" height="32" viewBox="0 0 32 32" fill="none" xmlns="http://www.w3.org/2000/svg">
<g clip-path="url(#clip0)">
<path d="M29.5 12.5H26.5M2.5 11.5C2.5 11.5 2.5 9.5 4.5 9.5H27.5C27.5 9.5 29.5 9.5 29.5 11.5V25.5H2.5V11.5ZM2.5 21.5H29.5H2.5ZM7.5 25.5V23.5H4.5V25.5H7.5ZM12.5 25.5V23.5H9.5V25.5H12.5ZM17.5 25.5V23.5H14.5V25.5H17.5ZM22.5 25.5V23.5H19.5V25.5H22.5ZM27.5 25.5V23.5H24.5V25.5H27.5ZM5.5 9.5V17.5C5.5 17.5 5.5 18.5 6.5 18.5H25.5C25.5 18.5 26.5 18.5 26.5 17.5C26.5 16.5 26.5 9.5 26.5 9.5H5.5ZM5.5 16.5H2.5H5.5ZM5.5 12.5H2.5H5.5ZM29.5 16.5H26.5H29.5Z" stroke="white" stroke-miterlimit="10"/>
</g>
<defs>
<clipPath id="clip0">
<rect width="32" height="32" fill="white"/>
</clipPath>
</defs>
</svg>
