<svg width="32" height="32" viewBox="0 0 32 32" fill="none" xmlns="http://www.w3.org/2000/svg">
<path d="M22.5 26.5C17.5 26.5 14.5 22.5 9.5 22.5C4.5 22.5 2.5 24.5 2.5 24.5M8.667 11.75C5.612 11.759 2.5 11.509 2.5 11C2.5 9.99996 4.5 7.99996 8.5 7.99996C10.844 7.99996 12.501 8.68696 13.472 9.45696L8.667 11.75ZM13.958 6.90396C13.583 6.29696 13.093 5.66696 12.463 5.03796C9.609 2.18396 6.755 2.18396 6.042 2.89796C5.665 3.27496 7.877 5.84196 10.153 8.07496L13.958 6.90396ZM8.537 12.037C5.683 14.891 5.683 17.745 6.396 18.457C7.109 19.171 15.671 10.609 14.957 9.89596C14.244 9.18296 11.39 9.18296 8.537 12.037ZM14.439 11.427C17.266 11.971 25.5 11.829 25.5 11C25.5 9.99996 23.5 7.99996 19.5 7.99996C17.23 7.99996 15.604 8.64396 14.623 9.38396L14.439 11.427ZM17.906 8.01596C20.161 5.79696 22.331 3.27096 21.957 2.89796C21.244 2.18496 18.391 2.18396 15.536 5.03796C13.956 6.61896 13.251 8.19896 13.057 9.41596L17.906 8.01596ZM14.117 11.805C16.324 14.503 21.08 18.982 21.603 18.457C22.317 17.744 22.317 14.891 19.462 12.037C19.403 11.978 19.345 11.921 19.286 11.865L14.117 11.805ZM12.5 22.766C12.5 20.539 12.5 13.5 12.5 13.5V22.766ZM15.5 24C15.5 22 15.5 13.5 15.5 13.5V24ZM27.5 28C27.5 27.172 26.828 26.5 26 26.5C25.172 26.5 24.5 27.172 24.5 28C24.5 28.828 25.172 29.5 26 29.5C26.828 29.5 27.5 28.828 27.5 28ZM29.5 23.5L27.5 22.5V27.5L29.5 23.5ZM2.5 27.5C2.5 27.5 4.5 25.5 9.5 25.5C14.5 25.5 17.5 29.5 22.5 29.5L2.5 27.5Z" stroke="white" stroke-miterlimit="10" stroke-linecap="round" stroke-linejoin="round"/>
</svg>
