<svg width="32" height="32" viewBox="0 0 32 32" fill="none" xmlns="http://www.w3.org/2000/svg">
<path d="M2.5 16.5H29.5M2.5 6.5C2.5 6.5 2.5 4.5 4.5 4.5H27.5C27.5 4.5 29.5 4.5 29.5 6.5V25.5C29.5 25.5 29.5 27.5 27.5 27.5H4.5C4.5 27.5 2.5 27.5 2.5 25.5V6.5ZM6.5 7V14V7ZM5 9.5H8H5ZM12.5 7V14V7ZM11 11.5H14H11ZM18.5 7V14V7ZM17 10.5H20H17ZM24.5 7V14V7ZM23 9.5H26H23ZM26.5 22C26.5 20.619 25.381 19.5 24 19.5C22.619 19.5 21.5 20.619 21.5 22C21.5 23.381 22.619 24.5 24 24.5C25.381 24.5 26.5 23.381 26.5 22ZM18.5 27.5V20.5C18.5 19.5 17.5 19.5 17.5 19.5H7.5C6.5 19.5 6.5 20.5 6.5 20.5V27.5H18.5ZM6.5 21.5H18.5H6.5ZM6.5 23.5H18.5H6.5ZM6.5 25.5H18.5H6.5ZM9.5 19.5V27.5V19.5ZM12.5 19.5V27.5V19.5ZM15.5 19.5V27.5V19.5Z" stroke="white" stroke-miterlimit="10"/>
</svg>
