<svg width="32" height="32" viewBox="0 0 32 32" fill="none" xmlns="http://www.w3.org/2000/svg">
<g clip-path="url(#clip0)">
<path d="M23.5 21.5H27.5M7.695 20.724L18.437 4.295C20.071 1.466 22.43 2.828 22.43 2.828C24.521 4.036 22.864 6.866 24.75 7.953L26.925 9.195C27.867 9.739 27.322 10.684 27.322 10.684C27.322 10.684 26.779 11.626 25.836 11.081L20.549 8.029L7.695 20.724ZM20.723 6.873C20.723 6.873 20.278 8.021 19.603 9.777L20.723 6.873ZM17.938 14.125C17.659 14.856 17.436 15.452 17.148 16.215L17.938 14.125ZM15.629 20.266C15.343 21.037 15.193 21.47 14.938 22.172L15.629 20.266ZM13.5 11.5L3.5 10.5C3.5 10.5 4.069 16.117 3.379 19.489C2.943 21.622 1.219 25.5 4.828 27.869C8.131 30.037 11.55 29.923 13.277 26.598L13.5 11.5ZM3.94 13.555L11.5 14.5L3.94 13.555ZM24.893 10.537L25.983 8.65L24.893 10.537ZM18.506 19.422C19.108 18.381 18.75 17.049 17.709 16.447C16.667 15.846 15.334 16.204 14.734 17.244C14.132 18.287 14.489 19.617 15.529 20.219C16.573 20.821 17.903 20.463 18.506 19.422ZM20.829 13.22C21.431 12.178 21.073 10.847 20.033 10.245C18.99 9.643 17.658 10 17.057 11.042C16.454 12.083 16.813 13.415 17.854 14.016C18.896 14.618 20.228 14.261 20.829 13.22ZM16.183 25.624C16.785 24.583 16.426 23.251 15.385 22.649C14.343 22.047 13.01 22.405 12.41 23.445C11.809 24.487 12.166 25.821 13.207 26.421C14.248 27.022 15.581 26.665 16.183 25.624ZM12.5 2.5V4.5V2.5ZM11.5 3.5H13.5H11.5ZM20.5 26.5V28.5V26.5ZM19.5 27.5H21.5H19.5ZM2.5 4.5V6.5V4.5ZM1.5 5.5H3.5H1.5ZM25.5 19.5V23.5V19.5Z" stroke="white" stroke-miterlimit="10" stroke-linecap="round" stroke-linejoin="round"/>
</g>
<defs>
<clipPath id="clip0">
<rect width="32" height="32" fill="white"/>
</clipPath>
</defs>
</svg>
