<svg width="32" height="32" viewBox="0 0 32 32" fill="none" xmlns="http://www.w3.org/2000/svg">
<path d="M27.5001 3.49995H29.5001M13.9141 20.5509L12.5351 18.6329C11.0031 15.9789 6.07014 17.6489 3.51614 13.2259C1.54214 9.80595 2.71514 5.43295 6.13414 3.45895C9.55314 1.48395 13.9261 2.65595 15.9011 6.07595C15.9711 6.19695 16.0361 6.31695 16.0961 6.43595L13.9141 20.5509ZM18.1451 21.1799L20.2951 25.9469C20.2951 25.9469 20.8061 26.8309 19.9221 27.3419C19.0371 27.8529 18.5261 26.9679 18.5261 26.9679L16.4131 24.0299L18.1451 21.1799ZM12.5351 18.6329C12.5351 18.6329 13.1661 19.7269 14.2961 19.6969L12.5351 18.6329ZM4.22914 14.2419C4.63814 14.5019 5.04214 14.7029 5.42314 14.4839C6.30714 13.9729 5.28614 12.2039 6.17014 11.6929C7.05614 11.1819 8.07614 12.9509 8.96114 12.4409C9.84614 11.9299 8.82414 10.1609 9.70914 9.65095C10.5931 9.13995 11.6141 10.9089 12.5001 10.3989C13.3841 9.88795 12.3631 8.11895 13.2471 7.60795C13.7551 7.31495 14.3091 7.77295 14.8541 8.11995L4.22914 14.2419ZM2.68714 10.1669L13.7831 3.75995L2.68714 10.1669ZM8.23114 16.4009L14.2831 12.9059L8.23114 16.4009ZM27.4561 15.2259C24.9021 19.6489 19.9691 17.9789 18.4371 20.6329L12.4461 28.9669C12.4461 28.9669 11.9351 29.8519 11.0501 29.3409C10.1661 28.8299 10.6771 27.9459 10.6771 27.9459L14.8981 18.5899C16.4301 15.9359 12.5181 12.4989 15.0721 8.07595C17.0471 4.65595 21.4201 3.48395 24.8391 5.45895C28.2581 7.43295 29.4301 11.8059 27.4561 15.2259ZM14.8981 18.5899C14.8981 18.5899 13.8771 20.3589 15.6461 21.3799C17.4151 22.4009 18.4371 20.6329 18.4371 20.6329L14.8981 18.5899ZM14.5481 9.23095C14.5281 9.70395 14.5641 10.1399 14.9371 10.3549C15.8211 10.8659 16.8421 9.09695 17.7271 9.60795C18.6121 10.1189 17.5901 11.8879 18.4741 12.3989C19.3601 12.9099 20.3811 11.1409 21.2641 11.6509C22.1491 12.1609 21.1271 13.9299 22.0121 14.4409C22.8971 14.9519 23.9171 13.1829 24.8031 13.6929C25.6871 14.2039 24.6661 15.9729 25.5501 16.4839C25.9301 16.7029 26.3351 16.5019 26.7441 16.2419L14.5481 9.23095ZM17.1891 5.75995L28.2861 12.1659L17.1891 5.75995ZM14.6871 13.7499L22.8001 18.4359L14.6871 13.7499ZM6.50014 20.4999V22.4999V20.4999ZM5.50014 21.4999H7.50014H5.50014ZM25.5001 24.4999V26.4999V24.4999ZM24.5001 25.4999H26.5001H24.5001ZM28.5001 2.49995V4.49995V2.49995Z" stroke="white" stroke-miterlimit="10" stroke-linecap="round"/>
</svg>
