<svg width="32" height="32" viewBox="0 0 32 32" fill="none" xmlns="http://www.w3.org/2000/svg">
<path d="M18.4999 10.5C18.4999 10.5 18.4999 8.5 16.4999 8.5C14.4999 8.5 14.4999 10.5 14.4999 10.5V16.5C14.4999 16.5 14.4999 18.5 16.4999 18.5C18.4999 18.5 18.4999 16.5 18.4999 16.5M18.4999 10.5V16.5M18.4999 10.5C18.4999 10.5 18.4999 8.5 20.4999 8.5C22.4999 8.5 22.4999 10.5 22.4999 10.5V16.5M18.4999 16.5C18.4999 16.5 18.4999 18.5 20.4999 18.5C22.4999 18.5 22.4999 16.5 22.4999 16.5M22.4999 16.5V4.5C22.4999 4.5 22.4999 2.5 24.4999 2.5C26.4999 2.5 26.4999 4.5 26.4999 4.5V20.5C26.4999 24.5 24.4999 24.5 24.4999 26.5M14.4999 11.5V4.5C14.4999 4.5 14.4999 2.5 12.4999 2.5C10.4999 2.5 10.4999 4.5 10.4999 4.5V17.688L6.91386 14.086C6.13386 13.305 4.86586 13.305 4.08586 14.086C3.30486 14.867 3.43786 15.875 4.08586 16.914C9.66686 26.042 12.4999 24.5 12.4999 26.5M12.4999 26.5V29.5H24.4999V26.5M12.4999 26.5H24.4999M21.4999 26.5V29.5M20.4999 11.5H22.4999M16.4999 11.5H18.4999" stroke="white" stroke-miterlimit="10" stroke-linecap="round" stroke-linejoin="round"/>
</svg>
