<svg width="32" height="32" viewBox="0 0 32 32" fill="none" xmlns="http://www.w3.org/2000/svg">
<path d="M21.2419 10.764L22.6939 12.217M13.9779 28.197C10.3459 31.829 5.26089 26.745 5.26089 26.745C5.26089 26.745 0.175888 21.66 3.80789 18.027C5.98689 15.849 7.80289 16.938 9.25589 15.485C10.3459 14.395 9.61989 13.668 11.7979 11.489C14.7039 8.58397 18.3369 12.216 19.0619 12.942C19.7889 13.668 23.4209 17.3 20.5149 20.207C18.3359 22.386 17.6099 21.658 16.5189 22.749C15.0669 24.202 16.1569 26.019 13.9779 28.197ZM22.6939 6.40597L17.6099 11.49L22.6939 6.40597ZM20.5159 14.396L25.6009 9.31197L20.5159 14.396ZM29.2329 5.67897C29.5399 5.14497 29.6339 4.62797 29.2329 4.22597L27.7799 2.77297C27.3789 2.37197 26.8479 2.43297 26.3269 2.77297L22.6939 4.95297C22.2929 5.35397 22.2929 6.00497 22.6939 6.40597L25.5999 9.31097C26.0009 9.71197 26.6519 9.71197 27.0529 9.31097L29.2329 5.67897ZM15.4299 20.934C16.6339 19.731 16.6339 17.778 15.4299 16.576C14.2259 15.373 12.2739 15.373 11.0709 16.576C9.86789 17.778 9.86789 19.731 11.0709 20.934C12.2749 22.136 14.2269 22.136 15.4299 20.934ZM7.07689 19.844L12.5249 25.292L7.07689 19.844ZM22.6939 9.31097L24.1469 10.764L22.6939 9.31097Z" stroke="white" stroke-miterlimit="10" stroke-linecap="round"/>
</svg>
