<svg width="32" height="32" viewBox="0 0 32 32" fill="none" xmlns="http://www.w3.org/2000/svg">
<path d="M16.564 4.72L27.281 15.435M5.5 11.5V13.5V11.5ZM4.5 12.5H6.5H4.5ZM26.5 21.5V23.5V21.5ZM25.5 22.5H27.5H25.5ZM9.5 2.5V6.5V2.5ZM7.5 4.5H11.5H7.5ZM19.5 24.5V28.5V24.5ZM17.5 26.5H21.5H17.5ZM19.243 16.774C19.913 17.443 19.243 18.114 19.243 18.114C19.243 18.114 7.188 28.83 5.849 27.491C4.51 26.151 4.51 26.151 4.51 26.151C3.171 24.812 13.217 13.425 13.886 12.755C14.556 12.086 15.226 12.755 15.226 12.755L19.243 16.774ZM12.1 14.989L17.091 19.982L12.1 14.989ZM6.77 21.715L10.327 25.271L6.77 21.715ZM5.179 26.821L2.5 29.5L5.179 26.821ZM19.79 17.351C22.361 18.102 25.253 17.463 27.281 15.435C30.239 12.477 30.239 7.678 27.281 4.72C24.322 1.762 19.523 1.761 16.564 4.72C14.537 6.747 13.899 9.64 14.65 12.211L19.79 17.351Z" stroke="white" stroke-miterlimit="10" stroke-linecap="round"/>
</svg>
