<svg width="32" height="32" viewBox="0 0 32 32" fill="none" xmlns="http://www.w3.org/2000/svg">
<path d="M19.5 12.5H22.266M18.5 16.5C18.5 17.5 16.5 19.5 15.5 19.5C14.5 19.5 12.5 17.5 12.5 16.5C12.5 15.5 15.5 15.5 15.5 15.5C15.5 15.5 18.5 15.5 18.5 16.5ZM12.5 16.5L13.5 10.5H8.5L12.5 16.5ZM22.5 10.5H17.5L18.5 16.5L22.5 10.5ZM15.5 25.5C19.5 25.5 22.5 21.5 22.5 10.5C22.5 5.5 15.5 5.5 15.5 5.5C15.5 5.5 8.5 5.5 8.5 10.5C8.5 21.5 11.5 25.5 15.5 25.5ZM15.5 1.5C3.5 1.5 2.5 11.5 2.5 11.5L5.5 10.5C2.5 12.5 2.5 17.5 2.5 17.5L4.5 16.5C4.5 16.5 2.5 19.5 3.5 24.5L5.5 22.5C5.5 22.5 4.5 25.5 9.5 29.5V26.5C9.5 26.5 11.5 29.5 15.5 30.5C19.5 29.5 21.5 26.5 21.5 26.5V29.5C26.5 25.5 25.5 22.5 25.5 22.5L27.5 24.5C28.5 19.5 26.5 16.5 26.5 16.5L28.5 17.5C28.5 17.5 28.5 12.5 25.5 10.5L28.5 11.5C28.5 11.5 27.5 1.5 15.5 1.5ZM9.82 20.465C10.364 21.188 11.55 22.5 13 22.5C15 22.5 15.5 19.5 15.5 19.5L9.82 20.465ZM15.5 19.5C15.5 19.5 16 22.5 18 22.5C19.53 22.5 20.769 21.036 21.266 20.349L15.5 19.5ZM8.703 12.5H11.5H8.703Z" stroke="white" stroke-miterlimit="10" stroke-linecap="round" stroke-linejoin="round"/>
</svg>
