<svg width="32" height="32" viewBox="0 0 32 32" fill="none" xmlns="http://www.w3.org/2000/svg">
<path d="M5.23878 26.7621C5.23878 26.7621 -0.544219 21.1871 3.34478 17.2961C5.67878 14.9621 8.60378 15.0651 10.1598 13.5101C11.3268 12.3431 10.9168 11.2391 14.7028 7.45311C14.7028 7.45311 15.4598 6.69511 16.2178 7.45311C17.7318 8.96711 13.9458 11.2381 16.2178 13.5101L5.23878 26.7621ZM5.23878 26.7621C5.23878 26.7621 10.8138 32.5441 14.7028 28.6551C17.0368 26.3201 16.1778 24.1541 17.7318 22.5981C18.8988 21.4301 20.0038 21.8411 23.0318 18.8131C23.0318 18.8131 23.7898 18.0551 23.0318 17.2961C21.5178 15.7821 19.2468 19.5681 16.9748 17.2961L5.23878 26.7621ZM11.6748 22.5981L25.9368 8.33511M9.40178 20.3251L23.6638 6.06311L16.2168 13.5101C16.2168 13.5101 13.9458 14.2671 11.6748 15.0241C9.40278 15.7821 9.00178 17.8551 10.9168 18.8121C13.9458 20.3271 13.1888 22.5981 16.2178 25.6261M8.64578 19.5681L12.4318 23.3541M7.12978 21.0831L10.9158 24.8681M24.5468 9.72411L23.7898 8.96711M22.2728 10.4811L23.0308 11.2381M20.0028 14.2671L19.2458 13.5101M18.4888 15.7821L17.7308 15.0251M21.4238 12.6591L19.3518 10.5861M29.8478 2.91011L29.0908 2.15311C28.3318 1.39511 24.5458 3.66811 23.7888 4.42411C23.0308 5.18111 23.7888 5.93811 23.7888 5.93811L26.0598 8.20911C26.0598 8.20911 26.8178 8.96611 27.5748 8.20911C28.3318 7.45311 30.6038 3.66711 29.8478 2.91011Z" stroke="white" stroke-miterlimit="10" stroke-linecap="round"/>
</svg>
