<svg width="32" height="32" viewBox="0 0 32 32" fill="none" xmlns="http://www.w3.org/2000/svg">
<path d="M29.375 21.732C27.677 19.111 26.863 14.5 24 14.5C19.877 14.5 20.123 22.5 16 22.5C11.877 22.5 12.123 14.5 8 14.5C5.057 14.5 4.279 19.373 2.479 21.947M16 12.5C8.544 12.5 2.5 10.709 2.5 8.5C2.5 6.291 8.544 4.5 16 4.5C23.456 4.5 29.5 6.291 29.5 8.5C29.5 10.709 23.456 12.5 16 12.5ZM2.5 8.5V24.5C2.5 26.709 8.544 28.5 16 28.5C23.456 28.5 29.5 26.709 29.5 24.5V8.5H2.5ZM2.5 21.5C2.5 23.709 8.544 25.5 16 25.5C23.456 25.5 29.5 23.709 29.5 21.5H2.5Z" stroke="white" stroke-miterlimit="10"/>
</svg>
