<svg width="32" height="32" viewBox="0 0 32 32" fill="none" xmlns="http://www.w3.org/2000/svg">
<path d="M16 21.4286C22.4278 21.4286 27.7467 15.9524 29.8889 15.9524C31 15.9524 31 17.0476 31 17.0476C31 25.8095 20.4444 28 16 28C11.5556 28 1 25.8095 1 17.0476C1 17.0476 1 15.9524 2.11111 15.9524C4.25333 15.9524 9.57111 21.4286 16 21.4286ZM1.24333 18.1626C3.59778 18.524 9.79889 23.619 16 23.619L1.24333 18.1626ZM16 23.619C22.02 23.619 28.0422 18.8164 30.5422 18.2075L16 23.619ZM25.4444 18.1429V17.0476C25.4444 12.6667 21.8633 5 19.5189 5C16.5556 5 16.5556 7.19048 16 7.19048C15.4444 7.19048 15.4444 5 12.4811 5C10.1356 5 6.55556 12.6667 6.55556 17.0476V18.1429H25.4444ZM14.8222 12.7127L11.7722 12.9569L14.0944 14.9207L13.3867 17.8548L16 16.2842L18.6133 17.8548L17.9056 14.9207L20.2278 12.9569L17.1778 12.7127L16 9.92857L14.8222 12.7127Z" stroke="white" stroke-miterlimit="10" stroke-linecap="round" stroke-linejoin="round"/>
</svg>
